<?xml version="1.0" encoding="UTF-8" standalone="no"?>
<!-- Created with Inkscape (http://www.inkscape.org/) -->

<svg
   width="88.258377mm"
   height="21.507431mm"
   viewBox="0 0 88.258377 21.507431"
   version="1.1"
   id="svg5"
   inkscape:version="1.2.2 (b0a8486541, 2022-12-01)"
   sodipodi:docname="Logo.svg"
   xmlns:inkscape="http://www.inkscape.org/namespaces/inkscape"
   xmlns:sodipodi="http://sodipodi.sourceforge.net/DTD/sodipodi-0.dtd"
   xmlns="http://www.w3.org/2000/svg"
   xmlns:svg="http://www.w3.org/2000/svg">
  <sodipodi:namedview
     id="namedview7"
     pagecolor="#ffffff"
     bordercolor="#000000"
     borderopacity="0.25"
     inkscape:showpageshadow="2"
     inkscape:pageopacity="0.0"
     inkscape:pagecheckerboard="0"
     inkscape:deskcolor="#d1d1d1"
     inkscape:document-units="mm"
     showgrid="false"
     inkscape:zoom="2.9469416"
     inkscape:cx="173.06078"
     inkscape:cy="60.401604"
     inkscape:window-width="1920"
     inkscape:window-height="1007"
     inkscape:window-x="0"
     inkscape:window-y="0"
     inkscape:window-maximized="1"
     inkscape:current-layer="text334" />
  <defs
     id="defs2">
    <rect
       x="107.33267"
       y="410.38495"
       width="180.40369"
       height="57.332657"
       id="rect373" />
  </defs>
  <g
     inkscape:label="Layer 1"
     inkscape:groupmode="layer"
     id="layer1"
     transform="translate(-105.08467,-103.46484)" />
  <g
     inkscape:groupmode="layer"
     id="layer2"
     inkscape:label="Layer 2"
     transform="translate(-105.08467,-103.46484)">
    <path
       style="color:#000000;fill:#fa0000;stroke-dasharray:2.295, 0.765;-inkscape-stroke:none"
       d="m 142.22852,116.93373 c -0.51046,0.57127 -1.01551,1.14311 -1.53516,1.69336 l 0.55664,0.52344 c 0.53089,-0.56215 1.03991,-1.13749 1.54883,-1.70703 z"
       id="path13931" />
    <g
       aria-label=" artogr pher"
       id="text334"
       style="font-size:11.1896px;font-family:'DejaVu Serif';-inkscape-font-specification:'DejaVu Serif';fill:#ffcc00;stroke-width:0.332">
      <path
         d="m 125.48926,119.25922 q -0.52591,0 -0.7497,-0.26855 -0.22379,-0.26855 -0.27974,-0.67138 h -0.0559 q -0.19022,0.50353 -0.61542,0.79446 -0.41402,0.27974 -1.11896,0.27974 -0.90636,0 -1.44346,-0.46996 -0.5371,-0.46996 -0.5371,-1.28681 0,-0.80565 0.58186,-1.24204 0.59304,-0.4364 1.90223,-0.4364 h 1.23085 v -0.57067 q 0,-0.6378 -0.35806,-0.95111 -0.35807,-0.3245 -1.01826,-0.3245 -0.58186,0 -0.95111,0.23498 -0.36926,0.22379 -0.59305,0.61543 l -0.60424,-0.44758 q 0.1119,-0.2238 0.30212,-0.4364 0.19022,-0.2126 0.46996,-0.36926 0.27974,-0.16784 0.63781,-0.25736 0.35807,-0.1007 0.79446,-0.1007 1.01825,0 1.6113,0.51472 0.60424,0.51472 0.60424,1.43227 v 3.17784 h 0.80565 v 0.78328 z m -2.66312,-0.61543 q 0.34688,0 0.62662,-0.0783 0.29093,-0.0895 0.50353,-0.22379 0.2126,-0.14547 0.3245,-0.33569 0.12308,-0.20141 0.12308,-0.4252 v -0.95112 h -1.23085 q -0.80565,0 -1.17491,0.22379 -0.36926,0.22379 -0.36926,0.649 v 0.23498 q 0,0.44758 0.31331,0.68257 0.3245,0.22379 0.88398,0.22379 z"
         id="path901" />
      <path
         d="m 127.52578,118.49832 h 1.68963 v -4.25204 h -1.68963 v -0.7609 h 2.58479 v 1.45465 h 0.0559 q 0.17904,-0.68256 0.67138,-1.06301 0.50353,-0.39164 1.27561,-0.39164 h 0.80565 v 0.89517 h -1.08539 q -0.77208,0 -1.25323,0.44758 -0.46997,0.44759 -0.46997,1.17491 v 2.49528 h 2.23792 v 0.7609 h -4.82271 z"
         id="path903" />
      <path
         d="m 137.01456,119.25922 q -0.66019,0 -0.97349,-0.36926 -0.30212,-0.36926 -0.30212,-0.95112 v -3.69256 h -1.92461 v -0.7609 h 1.43226 q 0.29093,0 0.40283,-0.11189 0.12309,-0.12309 0.12309,-0.41402 v -1.51059 h 0.86159 v 2.0365 h 2.62956 v 0.7609 h -2.62956 v 4.25204 h 2.62956 v 0.7609 z"
         id="path905" />
      <path
         d="m 143.44859,119.39349 q -0.60424,0 -1.09659,-0.2126 -0.48115,-0.2126 -0.82803,-0.60424 -0.33568,-0.40282 -0.51472,-0.95112 -0.17903,-0.55948 -0.17903,-1.25323 0,-0.68257 0.17903,-1.24205 0.17904,-0.55948 0.51472,-0.95111 0.34688,-0.40283 0.82803,-0.61543 0.49235,-0.2126 1.09659,-0.2126 0.60423,0 1.08539,0.2126 0.49234,0.2126 0.82803,0.61543 0.34687,0.39163 0.52591,0.95111 0.17903,0.55948 0.17903,1.24205 0,0.69375 -0.17903,1.25323 -0.17904,0.5483 -0.52591,0.95112 -0.33569,0.39164 -0.82803,0.60424 -0.48116,0.2126 -1.08539,0.2126 z m 0,-0.77208 q 0.7497,0 1.20847,-0.44758 0.45878,-0.44759 0.45878,-1.38752 v -0.82803 q 0,-0.93992 -0.45878,-1.38751 -0.45877,-0.44758 -1.20847,-0.44758 -0.74971,0 -1.20848,0.44758 -0.45878,0.44759 -0.45878,1.38751 v 0.82803 q 0,0.93993 0.45878,1.38752 0.45877,0.44758 1.20848,0.44758 z"
         id="path907" />
      <path
         d="m 153.08284,119.9194 q 0,0.87279 -0.72733,1.28681 -0.72732,0.4252 -2.18197,0.4252 -1.3987,0 -2.01413,-0.36926 -0.60424,-0.36925 -0.60424,-1.06301 0,-0.46996 0.24617,-0.72732 0.24618,-0.25736 0.69376,-0.38045 v -0.13427 q -0.24617,-0.12309 -0.38045,-0.31331 -0.13427,-0.19022 -0.13427,-0.48115 0,-0.44759 0.29093,-0.67138 0.30212,-0.22379 0.7497,-0.33569 v -0.0448 q -0.5371,-0.23498 -0.83922,-0.69375 -0.29093,-0.45878 -0.29093,-1.0742 0,-0.4364 0.15666,-0.80565 0.15665,-0.36926 0.44758,-0.62662 0.30212,-0.26855 0.71613,-0.41402 0.41402,-0.14546 0.91755,-0.14546 0.649,0 1.14134,0.23498 v -0.10071 q 0,-0.33569 0.15665,-0.55948 0.15666,-0.22379 0.53711,-0.22379 h 1.06301 v 0.78327 h -1.298 v 0.39164 q 0.31331,0.26855 0.48116,0.63781 0.16784,0.36925 0.16784,0.82803 0,0.43639 -0.16784,0.80565 -0.15666,0.36925 -0.44759,0.6378 -0.29093,0.25737 -0.71613,0.40283 -0.41402,0.14547 -0.91755,0.14547 -0.14546,0 -0.27974,-0.0112 -0.13427,-0.0112 -0.26855,-0.0336 -0.13427,0.0224 -0.27974,0.0783 -0.14546,0.0448 -0.26855,0.13428 -0.12309,0.0783 -0.20141,0.19022 -0.0783,0.1119 -0.0783,0.25736 0,0.25736 0.25736,0.34688 0.25736,0.0783 0.67138,0.0783 h 1.27561 q 1.11896,0 1.62249,0.4252 0.50354,0.41402 0.50354,1.11896 z m -0.83922,0.0448 q 0,-0.34688 -0.27974,-0.55948 -0.27974,-0.20141 -0.9735,-0.20141 h -2.00294 q -0.58186,0.23498 -0.58186,0.78327 0,0.38045 0.30212,0.649 0.30212,0.27974 1.00707,0.27974 h 0.87278 q 0.78328,0 1.21967,-0.24617 0.4364,-0.23499 0.4364,-0.70495 z m -2.11484,-3.32331 q 0.67138,0 0.98469,-0.31331 0.32449,-0.31331 0.32449,-0.82803 v -0.3245 q 0,-0.51472 -0.32449,-0.81684 -0.31331,-0.31331 -0.98469,-0.31331 -0.67138,0 -0.98468,0.31331 -0.31331,0.30212 -0.31331,0.81684 v 0.3245 q 0,0.51472 0.31331,0.82803 0.3133,0.31331 0.98468,0.31331 z"
         id="path909" />
      <path
         d="m 154.38083,118.49832 h 1.68963 v -4.25204 h -1.68963 v -0.7609 h 2.5848 v 1.45465 h 0.0559 q 0.17903,-0.68256 0.67137,-1.06301 0.50354,-0.39164 1.27562,-0.39164 h 0.80565 v 0.89517 h -1.08539 q -0.77208,0 -1.25324,0.44758 -0.46996,0.44759 -0.46996,1.17491 v 2.49528 h 2.23792 v 0.7609 h -4.82272 z"
         id="path911" />
      <path
         d="m 168.00977,113.48538 h 0.89517 v 0.93993 h 0.0448 q 0.55948,-1.0742 1.77915,-1.0742 1.06301,0 1.65606,0.79446 0.60424,0.79446 0.60424,2.22673 0,1.43227 -0.60424,2.22673 -0.59305,0.79446 -1.65606,0.79446 -1.21967,0 -1.77915,-1.0742 h -0.0448 v 3.17785 h -0.89517 z m 2.3722,5.11365 q 0.78327,0 1.20848,-0.46996 0.43639,-0.48116 0.43639,-1.26443 v -0.98468 q 0,-0.78327 -0.43639,-1.25324 -0.42521,-0.48115 -1.20848,-0.48115 -0.30212,0 -0.57067,0.0783 -0.26855,0.0783 -0.46996,0.23498 -0.20142,0.14546 -0.3245,0.36925 -0.1119,0.21261 -0.1119,0.50354 v 2.08126 q 0,0.29093 0.1119,0.51472 0.12308,0.21261 0.3245,0.36926 0.20141,0.14547 0.46996,0.22379 0.26855,0.0783 0.57067,0.0783 z"
         id="path913" />
      <path
         d="m 174.75711,110.97891 h 0.89517 v 3.4464 h 0.0448 q 0.0895,-0.2126 0.2238,-0.40283 0.13427,-0.20141 0.32449,-0.34687 0.20142,-0.14547 0.46997,-0.23499 0.26855,-0.0895 0.62661,-0.0895 0.90636,0 1.45465,0.58186 0.54829,0.57067 0.54829,1.62249 v 3.70376 h -0.89516 v -3.54711 q 0,-0.79446 -0.34688,-1.1749 -0.34688,-0.39164 -1.01826,-0.39164 -0.26855,0 -0.52591,0.0671 -0.25736,0.0671 -0.45877,0.20141 -0.20141,0.13427 -0.3245,0.34688 -0.12308,0.2126 -0.12308,0.49234 v 4.00588 h -0.89517 z"
         id="path915" />
      <path
         d="m 183.83188,119.39349 q -0.62662,0 -1.13015,-0.2126 -0.49235,-0.2126 -0.85041,-0.60424 -0.34688,-0.40282 -0.5371,-0.95112 -0.19023,-0.55948 -0.19023,-1.24204 0,-0.69376 0.19023,-1.25324 0.20141,-0.55948 0.54829,-0.95111 0.34687,-0.40283 0.82803,-0.61543 0.49234,-0.2126 1.08539,-0.2126 0.58186,0 1.05182,0.2126 0.48115,0.2126 0.81684,0.59305 0.33569,0.36926 0.51472,0.88398 0.17904,0.51472 0.17904,1.13015 v 0.4252 h -4.27443 v 0.26855 q 0,0.38045 0.12309,0.70495 0.12308,0.3245 0.34687,0.55948 0.23498,0.23498 0.55948,0.36925 0.33569,0.12309 0.73852,0.12309 0.58186,0 1.00706,-0.26855 0.42521,-0.26855 0.649,-0.73851 l 0.66018,0.44758 q -0.25736,0.58186 -0.8616,0.9623 -0.59304,0.36926 -1.45464,0.36926 z m -0.056,-5.30387 q -0.36926,0 -0.68257,0.13428 -0.31331,0.13427 -0.54829,0.36925 -0.22379,0.23498 -0.35806,0.55948 -0.12309,0.31331 -0.12309,0.69376 v 0.0783 h 3.31212 v -0.12309 q 0,-0.38045 -0.12308,-0.69376 -0.1119,-0.3133 -0.3245,-0.5371 -0.20142,-0.23498 -0.50353,-0.35806 -0.29093,-0.12309 -0.649,-0.12309 z"
         id="path917" />
      <path
         d="m 187.94966,118.49832 h 1.68963 v -4.25204 h -1.68963 v -0.7609 h 2.5848 v 1.45465 h 0.0559 q 0.17904,-0.68256 0.67138,-1.06301 0.50353,-0.39164 1.27561,-0.39164 h 0.80565 v 0.89517 h -1.08539 q -0.77208,0 -1.25323,0.44758 -0.46996,0.44759 -0.46996,1.17491 v 2.49528 h 2.23792 v 0.7609 h -4.82272 z"
         id="path919" />
    </g>
    <path
       style="fill:none;stroke:#ffcc00;stroke-width:0.86934;stroke-dasharray:2.60802, 0.86934;stroke-dashoffset:0;stroke-opacity:1"
       d="m 118.72358,117.86972 c -10.34546,7.61725 -9.05302,-17.46764 0.32456,-6.9048"
       id="path549"
       sodipodi:nodetypes="cc" />
    <g
       id="g14017"
       inkscape:label="g14017">
      <path
         style="color:#000000;fill:#fa0000;stroke-dasharray:2.295, 0.765;-inkscape-stroke:none"
         d="m 129.63672,124.16613 c -0.75086,0.0437 -1.50392,0.0497 -2.25977,0.0293 l -0.0215,0.76563 c 0.77344,0.0208 1.54955,0.0139 2.32617,-0.0312 z"
         id="path13967" />
      <path
         style="color:#000000;fill:#fa0000;stroke-dasharray:2.295, 0.765;-inkscape-stroke:none"
         d="m 124.35742,123.97863 -0.0859,0.75976 c 0.76712,0.0869 1.53748,0.15287 2.31055,0.19141 l 0.0391,-0.76367 c -0.75505,-0.0376 -1.51057,-0.10219 -2.26367,-0.1875 z"
         id="path13965" />
      <path
         style="color:#000000;fill:#fa0000;stroke-dasharray:2.295, 0.765;-inkscape-stroke:none"
         d="m 132.59766,123.75988 c -0.72042,0.17439 -1.46245,0.28179 -2.21094,0.35156 l 0.0723,0.76172 c 0.77429,-0.0722 1.55134,-0.18347 2.31836,-0.36914 z"
         id="path13963" />
      <path
         style="color:#000000;fill:#fa0000;stroke-dasharray:2.295, 0.765;-inkscape-stroke:none"
         d="m 121.36133,123.5255 -0.14258,0.75 c 0.75852,0.14371 1.52168,0.26772 2.28711,0.36914 l 0.0996,-0.75781 c -0.75129,-0.0995 -1.49943,-0.22024 -2.24414,-0.36133 z"
         id="path13961" />
      <path
         style="color:#000000;fill:#fa0000;stroke-dasharray:2.295, 0.765;-inkscape-stroke:none"
         d="m 118.40234,122.85753 -0.19531,0.74024 c 0.74641,0.19704 1.49988,0.37328 2.25586,0.52929 l 0.1543,-0.75 c -0.74241,-0.1532 -1.48196,-0.32606 -2.21485,-0.51953 z"
         id="path13959" />
      <path
         style="color:#000000;fill:#fa0000;stroke-dasharray:2.295, 0.765;-inkscape-stroke:none"
         d="m 135.37891,122.72081 c -0.13499,0.0669 -0.27557,0.13215 -0.41797,0.19727 -0.54335,0.24443 -1.09401,0.46593 -1.6543,0.64648 l 0.23438,0.72657 c 0.59508,-0.19176 1.17303,-0.42231 1.73632,-0.67579 l 0.002,-0.002 c 0.1443,-0.066 0.29197,-0.13389 0.43945,-0.20703 z"
         id="path13957" />
      <path
         style="color:#000000;fill:#fa0000;stroke-dasharray:2.295, 0.765;-inkscape-stroke:none"
         d="m 168.14453,122.02355 -0.10937,0.75781 c 0.79264,0.1144 1.59215,0.1166 2.37695,0.0488 l -0.0664,-0.76172 c -0.73842,0.0638 -1.4788,0.0593 -2.20117,-0.0449 z"
         id="path13955" />
      <path
         style="color:#000000;fill:#fa0000;stroke-dasharray:2.295, 0.765;-inkscape-stroke:none"
         d="m 115.50586,121.97475 -0.25391,0.72266 c 0.72986,0.2552 1.46782,0.48513 2.21094,0.69531 l 0.20899,-0.73438 c -0.72909,-0.2062 -1.45164,-0.4338 -2.16602,-0.68359 z"
         id="path13953" />
      <path
         style="color:#000000;fill:#fa0000;stroke-dasharray:2.295, 0.765;-inkscape-stroke:none"
         d="m 173.25391,121.4728 c -0.70964,0.22709 -1.43664,0.39871 -2.17188,0.50781 l 0.11328,0.75781 c 0.77818,-0.11547 1.54365,-0.29794 2.29102,-0.53711 z"
         id="path13951" />
      <path
         style="color:#000000;fill:#fa0000;stroke-dasharray:2.295, 0.765;-inkscape-stroke:none"
         d="m 137.92383,121.1603 -0.19336,0.14453 -0.29102,0.20703 -0.30078,0.20312 -0.30664,0.19922 -0.31836,0.19336 -0.32617,0.18946 -0.14453,0.0781 0.36719,0.67188 0.15234,-0.084 0.3418,-0.19726 0.33398,-0.20313 0.32227,-0.20898 0.31445,-0.21289 0.30664,-0.2168 0.19922,-0.15039 z"
         id="path13949" />
      <path
         style="color:#000000;fill:#fa0000;stroke-dasharray:2.295, 0.765;-inkscape-stroke:none"
         d="m 165.54687,120.96303 -0.5,0.58008 c 0.6398,0.55163 1.41758,0.88753 2.19922,1.08398 l 0.18555,-0.74218 c -0.69734,-0.17527 -1.36167,-0.47087 -1.88477,-0.92188 z"
         id="path13947" />
      <path
         style="color:#000000;fill:#fa0000;stroke-dasharray:2.295, 0.765;-inkscape-stroke:none"
         d="m 112.70117,120.84975 -0.32226,0.69336 c 0.70448,0.32527 1.42224,0.62004 2.14648,0.89062 l 0.26758,-0.71679 c -0.70889,-0.26485 -1.40718,-0.55109 -2.0918,-0.86719 z"
         id="path13945" />
      <path
         style="color:#000000;fill:#fa0000;stroke-dasharray:2.295, 0.765;-inkscape-stroke:none"
         d="m 175.97461,120.27748 c -0.64303,0.37163 -1.31818,0.68841 -2.01563,0.95118 l 0.26954,0.71484 c 0.73402,-0.27655 1.44725,-0.60996 2.1289,-1.00391 z"
         id="path13943" />
      <path
         style="color:#000000;fill:#fa0000;stroke-dasharray:2.295, 0.765;-inkscape-stroke:none"
         d="m 164.71875,119.87514 -0.69336,0.32227 c 0.12017,0.25799 0.26687,0.50567 0.44336,0.73437 l 0.60547,-0.4668 c -0.13929,-0.18049 -0.25748,-0.37946 -0.35547,-0.58984 z"
         id="path13941" />
      <path
         style="color:#000000;fill:#fa0000;stroke-dasharray:2.295, 0.765;-inkscape-stroke:none"
         d="m 110.05469,119.42397 -0.41211,0.64453 c 0.65902,0.41997 1.34232,0.79577 2.03711,1.14062 l 0.33984,-0.68359 c -0.67542,-0.33525 -1.33351,-0.69923 -1.96484,-1.10156 z"
         id="path13939" />
      <path
         style="color:#000000;fill:#fa0000;stroke-dasharray:2.295, 0.765;-inkscape-stroke:none"
         d="m 140.16797,119.17202 c -0.5289,0.53785 -1.07769,1.05284 -1.65625,1.52734 l 0.48633,0.58984 c 0.60454,-0.4958 1.17318,-1.02921 1.71679,-1.58203 z"
         id="path13937" />
      <path
         style="color:#000000;fill:#fa0000;stroke-dasharray:2.295, 0.765;-inkscape-stroke:none"
         d="m 178.31055,118.48647 c -0.50766,0.52786 -1.08492,0.99432 -1.70313,1.40234 l 0.41992,0.63672 c 0.65805,-0.43431 1.28076,-0.93257 1.83399,-1.50781 z"
         id="path13935" />
      <path
         style="color:#000000;fill:#fa0000;stroke-dasharray:2.295, 0.765;-inkscape-stroke:none"
         d="m 107.71875,117.58998 -0.54297,0.53907 c 0.55867,0.56416 1.1759,1.05957 1.81641,1.50781 l 0.4375,-0.62695 c -0.61231,-0.42851 -1.19272,-0.89661 -1.71094,-1.41993 z"
         id="path13933" />
      <path
         style="color:#000000;fill:#fa0000;stroke-dasharray:2.295, 0.765;-inkscape-stroke:none"
         d="m 179.83008,116.06264 c -0.21851,0.67646 -0.58379,1.31086 -1.03711,1.87695 l 0.59765,0.47657 c 0.5016,-0.62638 0.9157,-1.33814 1.16797,-2.11914 z"
         id="path13929" />
      <path
         style="color:#000000;fill:#fa0000;stroke-dasharray:2.295, 0.765;-inkscape-stroke:none"
         d="m 106.12109,115.21303 -0.72265,0.24609 0.004,0.0156 0.0879,0.22266 0.0957,0.2207 0.10547,0.2168 0.11523,0.21679 0.125,0.21289 0.13086,0.20703 0.002,0.002 c 0.13989,0.21322 0.28881,0.4181 0.44727,0.61523 l 0.002,0.002 0.12305,0.14843 0.58984,-0.48828 -0.11718,-0.14062 -0.004,-0.004 c -0.14159,-0.17639 -0.27525,-0.35954 -0.39844,-0.54687 l -0.002,-0.004 c -5e-4,-7.6e-4 -0.001,-0.001 -0.002,-0.002 l -0.11915,-0.1875 -0.10937,-0.1875 -0.10156,-0.19141 -0.0918,-0.18945 -0.084,-0.19336 z"
         id="path13927" />
      <path
         style="color:#000000;fill:#fa0000;stroke-dasharray:2.295, 0.765;-inkscape-stroke:none"
         d="m 144.32227,114.67397 c -0.54585,0.54965 -1.06881,1.1179 -1.58204,1.68945 l 0.56836,0.51172 c 0.50892,-0.56676 1.02432,-1.12607 1.55664,-1.66211 z"
         id="path13925" />
      <path
         style="color:#000000;fill:#fa0000;stroke-dasharray:2.295, 0.765;-inkscape-stroke:none"
         d="m 180.62695,113.06264 -0.73633,0.20313 c 0.18908,0.68507 0.23264,1.41303 0.11133,2.10742 l 0.75391,0.13086 c 0.14218,-0.81393 0.0888,-1.65244 -0.12891,-2.44141 z"
         id="path13923" />
      <path
         style="color:#000000;fill:#fa0000;stroke-dasharray:2.295, 0.765;-inkscape-stroke:none"
         d="m 146.62891,112.5978 c -0.61254,0.48176 -1.1962,0.99599 -1.75586,1.5332 l 0.52929,0.55273 c 0.544,-0.52216 1.11107,-1.02025 1.70118,-1.48437 z"
         id="path13921" />
      <path
         style="color:#000000;fill:#fa0000;stroke-dasharray:2.295, 0.765;-inkscape-stroke:none"
         d="m 122.07617,112.2267 -0.27734,0.71289 0.0684,0.0254 0.004,0.002 c 0.18392,0.0674 0.37361,0.12527 0.57032,0.16992 l 0.004,0.002 0.17774,0.0352 0.17578,0.0273 0.17187,0.0156 0.16602,0.006 0.16211,-0.004 0.1582,-0.0156 0.15235,-0.0254 0.14648,-0.0352 0.14258,-0.0449 0.13672,-0.0547 0.1289,-0.0664 0.12305,-0.0742 0.0742,-0.0547 -0.45117,-0.61719 -0.0488,0.0352 -0.0703,0.043 -0.0742,0.0371 -0.0801,0.0332 -0.0859,0.0273 -0.0918,0.0215 -0.0996,0.0156 -0.10547,0.01 -0.11328,0.004 -0.1211,-0.004 -0.1289,-0.0117 -0.13672,-0.0215 -0.14258,-0.0293 -0.01,-0.002 c -0.15349,-0.0353 -0.30795,-0.0829 -0.46093,-0.13867 l -0.008,-0.002 z"
         id="path13919" />
      <path
         style="color:#000000;fill:#fa0000;stroke-dasharray:2.295, 0.765;-inkscape-stroke:none"
         d="m 105.30664,112.2207 c -0.21379,0.71468 -0.28045,1.47706 -0.16797,2.22266 v 0.002 l 0.0195,0.11328 0.0195,0.10938 0.75196,-0.13867 -0.0176,-0.0996 -0.0176,-0.10156 v -0.002 c -0.094,-0.62523 -0.0384,-1.27508 0.14453,-1.88672 z"
         id="path13917" />
      <path
         style="color:#000000;fill:#fa0000;stroke-dasharray:2.295, 0.765;-inkscape-stroke:none"
         d="m 149.19922,110.85156 -0.37695,0.22461 -0.38086,0.23633 -0.36914,0.23828 -0.35743,0.24219 -0.34765,0.24609 -0.11914,0.0879 0.45507,0.61719 0.11329,-0.084 0.33398,-0.23828 0.3457,-0.23438 0.35547,-0.23047 0.36719,-0.22656 0.37109,-0.2207 z"
         id="path13915" />
      <path
         style="color:#000000;fill:#fa0000;stroke-dasharray:2.295, 0.765;-inkscape-stroke:none"
         d="m 119.57422,110.69141 -0.47461,0.59961 c 0.60241,0.47718 1.24106,0.92931 1.9375,1.29882 l 0.002,0.002 0.0293,0.0156 0.34766,-0.68164 -0.0215,-0.0117 c -0.63872,-0.33889 -1.23966,-0.7627 -1.82031,-1.22265 z"
         id="path13913" />
      <path
         style="color:#000000;fill:#fa0000;stroke-dasharray:2.295, 0.765;-inkscape-stroke:none"
         d="m 179.16602,110.22656 -0.60547,0.46875 c 0.41497,0.5355 0.76337,1.12608 1.03906,1.74805 l 0.0605,0.14453 0.70507,-0.29492 -0.0644,-0.15625 -0.002,-0.004 c -0.29959,-0.67587 -0.67795,-1.31928 -1.13281,-1.90625 z"
         id="path13911" />
      <path
         style="color:#000000;fill:#fa0000;stroke-dasharray:2.295, 0.765;-inkscape-stroke:none"
         d="m 125.07617,109.60742 -0.74609,0.16992 c 0.0907,0.39812 0.1367,0.80064 0.11523,1.19336 -0.0178,0.29393 -0.0734,0.57357 -0.18554,0.81055 l 0.6914,0.32813 c 0.16921,-0.35754 0.2363,-0.73687 0.25781,-1.09571 v -0.002 c 0.0262,-0.47996 -0.0297,-0.9519 -0.13281,-1.4043 z"
         id="path13909" />
      <path
         style="color:#000000;fill:#fa0000;stroke-dasharray:2.295, 0.765;-inkscape-stroke:none"
         d="m 151.99023,109.47656 c -0.71632,0.29809 -1.42105,0.62709 -2.10742,0.9961 l 0.36328,0.67382 c 0.66122,-0.35548 1.34302,-0.67519 2.03907,-0.96484 z"
         id="path13907" />
      <path
         style="color:#000000;fill:#fa0000;stroke-dasharray:2.295, 0.765;-inkscape-stroke:none"
         d="m 106.88477,109.44726 -0.16211,0.19336 -0.19532,0.25195 -0.002,0.002 c -0.36222,0.48079 -0.68756,0.99964 -0.9375,1.5625 l 0.69922,0.31055 c 0.22021,-0.49591 0.51203,-0.96477 0.8457,-1.4082 l 0.004,-0.004 0.18164,-0.23438 0.1543,-0.18554 z"
         id="path13905" />
      <path
         style="color:#000000;fill:#fa0000;stroke-dasharray:2.295, 0.765;-inkscape-stroke:none"
         d="m 154.9043,108.43749 c -0.73203,0.23091 -1.46713,0.46992 -2.19336,0.75 l 0.27539,0.71484 c 0.70148,-0.27054 1.42154,-0.50704 2.14844,-0.73632 z"
         id="path13903" />
      <path
         style="color:#000000;fill:#fa0000;stroke-dasharray:2.295, 0.765;-inkscape-stroke:none"
         d="m 176.81055,108.09569 -0.40821,0.64649 c 0.62003,0.39201 1.18993,0.86092 1.68555,1.39648 l 0.5625,-0.51953 c -0.54382,-0.58764 -1.16696,-1.09801 -1.83984,-1.52344 z"
         id="path13901" />
      <path
         style="color:#000000;fill:#fa0000;stroke-dasharray:2.295, 0.765;-inkscape-stroke:none"
         d="m 157.86328,107.58397 c -0.74555,0.19366 -1.48584,0.40437 -2.22266,0.62696 l 0.22071,0.73047 c 0.72778,-0.21987 1.45806,-0.4262 2.19336,-0.61719 z"
         id="path13899" />
      <path
         style="color:#000000;fill:#fa0000;stroke-dasharray:2.295, 0.765;-inkscape-stroke:none"
         d="m 109.11133,107.26562 -0.35547,0.3125 -0.36719,0.33203 -0.36914,0.34961 -0.375,0.36523 -0.22656,0.23047 0.54492,0.53516 0.22266,-0.22461 0.36328,-0.35352 0.35937,-0.33984 0.35743,-0.32422 0.3496,-0.30664 z"
         id="path13897" />
      <path
         style="color:#000000;fill:#fa0000;stroke-dasharray:2.295, 0.765;-inkscape-stroke:none"
         d="m 160.86523,106.88866 c -0.75628,0.1514 -1.50828,0.32141 -2.25586,0.50586 l 0.1836,0.74414 c 0.73783,-0.18205 1.47871,-0.34912 2.22265,-0.49804 z"
         id="path13895" />
      <path
         style="color:#000000;fill:#fa0000;stroke-dasharray:2.295, 0.765;-inkscape-stroke:none"
         d="m 173.93164,106.80666 -0.2207,0.73242 c 0.71166,0.21483 1.40446,0.48812 2.05468,0.83399 l 0.35938,-0.67578 c -0.70092,-0.37283 -1.44081,-0.66346 -2.19336,-0.89063 z"
         id="path13893" />
      <path
         style="color:#000000;fill:#fa0000;stroke-dasharray:2.295, 0.765;-inkscape-stroke:none"
         d="m 123.72656,106.71096 -0.61718,0.45117 c 0.43034,0.58905 0.7783,1.23802 1.01953,1.92187 l 0.72265,-0.2539 c -0.26777,-0.75912 -0.65325,-1.47342 -1.125,-2.11914 z"
         id="path13891" />
      <path
         style="color:#000000;fill:#fa0000;stroke-dasharray:2.295, 0.765;-inkscape-stroke:none"
         d="m 163.90625,106.37893 c -0.76524,0.10114 -1.52662,0.22356 -2.28516,0.36523 l 0.14063,0.75195 c 0.74542,-0.13922 1.49455,-0.26003 2.24609,-0.35937 z"
         id="path13889" />
      <path
         style="color:#000000;fill:#fa0000;stroke-dasharray:2.295, 0.765;-inkscape-stroke:none"
         d="m 170.86523,106.20119 -0.082,0.76172 c 0.74542,0.0794 1.4844,0.20352 2.20899,0.38086 l 0.18359,-0.74414 c -0.76153,-0.18638 -1.53493,-0.3158 -2.31055,-0.39844 z"
         id="path13887" />
      <path
         style="color:#000000;fill:#fa0000;stroke-dasharray:2.295, 0.765;-inkscape-stroke:none"
         d="m 166.98633,106.10159 -0.22071,0.01 h -0.002 c -0.69838,0.0371 -1.39441,0.0939 -2.08984,0.17383 l 0.0859,0.75976 c 0.67859,-0.078 1.36024,-0.13363 2.04296,-0.16992 l 0.21875,-0.01 z"
         id="path13885" />
      <path
         style="color:#000000;fill:#fa0000;stroke-dasharray:2.295, 0.765;-inkscape-stroke:none"
         d="m 167.75977,106.07619 0.0176,0.76367 c 0.43898,-0.009 0.87754,-0.008 1.31641,0.006 l 0.45117,0.0195 0.44336,0.0254 0.043,0.004 0.0606,-0.76172 -0.0488,-0.004 -0.45899,-0.0273 -0.46093,-0.0195 h -0.002 c -0.45331,-0.0139 -0.90789,-0.0153 -1.36132,-0.006 z"
         id="path13883" />
      <path
         style="color:#000000;fill:#fa0000;stroke-dasharray:2.295, 0.765;-inkscape-stroke:none"
         d="m 111.61328,105.39846 -0.0352,0.0234 -0.3418,0.2207 -0.3457,0.23437 -0.34766,0.24805 -0.35156,0.26367 -0.35352,0.27539 -0.12695,0.10352 0.48242,0.59375 0.12109,-0.0996 0.3418,-0.26563 0.33789,-0.25195 0.33399,-0.24023 0.33203,-0.22461 0.32617,-0.21094 0.0273,-0.0176 z"
         id="path13881" />
      <path
         style="color:#000000;fill:#fa0000;stroke-dasharray:2.295, 0.765;-inkscape-stroke:none"
         d="m 121.38672,104.54299 -0.39649,0.6543 c 0.61912,0.37543 1.17901,0.85061 1.66016,1.39648 l 0.57422,-0.50586 c -0.53007,-0.60137 -1.14871,-1.127 -1.83789,-1.54492 z"
         id="path13879" />
      <path
         style="color:#000000;fill:#fa0000;stroke-dasharray:2.295, 0.765;-inkscape-stroke:none"
         d="m 114.42383,104.0176 -0.23438,0.084 -0.31445,0.12305 -0.31836,0.13477 -0.32226,0.14453 -0.32422,0.16015 -0.32813,0.16992 -0.29687,0.16407 0.36914,0.66992 0.28906,-0.16016 0.31055,-0.16211 0.30664,-0.14843 0.30273,-0.13868 0.29883,-0.125 0.29492,-0.11523 0.22461,-0.0801 z"
         id="path13877" />
      <path
         style="color:#000000;fill:#fa0000;stroke-dasharray:2.295, 0.765;-inkscape-stroke:none"
         d="m 118.35742,103.51174 -0.084,0.75976 0.10156,0.0117 0.22852,0.0312 0.22461,0.041 0.21875,0.0469 0.22265,0.0547 h -0.006 c 0.21009,0.0562 0.41571,0.12236 0.61914,0.19922 0.1628,0.0627 0.31961,0.12467 0.46485,0.19531 l 0.33398,-0.6875 c -0.1765,-0.0859 -0.35254,-0.15684 -0.52344,-0.22265 h -0.002 c -0.22788,-0.0862 -0.45997,-0.16164 -0.69531,-0.22461 h -0.004 l -0.23633,-0.0606 -0.24609,-0.0508 -0.25,-0.0449 -0.25391,-0.0371 z"
         id="path13875" />
      <path
         style="color:#000000;fill:#fa0000;stroke-dasharray:2.295, 0.765;-inkscape-stroke:none"
         d="m 117.41406,103.46484 -0.27343,0.006 -0.2793,0.0176 -0.28125,0.0273 -0.28711,0.0371 -0.28906,0.0469 -0.29297,0.0566 -0.29688,0.0664 -0.22656,0.0586 0.19336,0.74023 0.21289,-0.0547 0.27344,-0.0625 0.26953,-0.0527 0.26562,-0.043 0.26172,-0.0332 0.25782,-0.0234 0.25195,-0.0156 0.24805,-0.008 0.12695,0.002 0.006,-0.76563 z"
         id="path1378" />
    </g>
    <g
       aria-label="X"
       id="text17354"
       style="font-size:11.1896px;font-family:'xkcd Script';-inkscape-font-specification:'xkcd Script';fill:#ff0000;stroke-width:0.331999">
      <path
         d="m 161.76333,120.21262 q -0.0131,0 -0.0915,0.0392 -0.0784,0.0262 -0.10458,0.0262 -0.0523,0 -0.28758,-0.15687 -0.2353,-0.15686 -0.24837,-0.19608 0,-0.11764 -0.0131,-0.16993 0,-0.0523 0.0654,-0.19608 0.0654,-0.14379 0.0915,-0.19608 0.0392,-0.0654 0.11765,-0.19608 0.0915,-0.14379 0.10458,-0.16993 0.0915,-0.16994 0.26144,-0.4706 0.183,-0.30065 0.23529,-0.39215 0.0261,-0.0523 0.57517,-1.00655 l 0.45752,-0.77124 -0.1438,-0.27451 q -0.15686,-0.28759 -0.15686,-0.30066 0,-0.0261 -0.16993,-0.31372 -0.24837,-0.39216 -0.57517,-1.04576 -0.0392,-0.0654 -0.22222,-0.39216 -0.16994,-0.3268 -0.36602,-0.73203 -0.0261,-0.0392 0,-0.26144 0.0131,-0.10458 0.18301,-0.22222 0.11765,-0.0784 0.22222,-0.11765 l 0.0654,-0.0261 q 0.0262,-0.0131 0.0654,0 0.0392,0.0131 0.0915,0.0654 0.0654,0.0523 0.10458,0.10457 0.0523,0.0523 0.0915,0.10458 0.0523,0.0523 0.0654,0.0654 0.1438,0.14379 0.61439,1.04575 0.183,0.33987 0.27451,0.50981 0.10457,0.15686 0.23529,0.40523 l 0.22223,0.40523 0.30065,-0.5098 q 0.43138,-0.69282 0.47059,-0.75818 0.54902,-0.79739 0.57517,-0.92811 0.0131,-0.27451 0.31373,-0.43137 0.15686,-0.0915 0.35294,-0.0523 0.19608,0.0392 0.22222,0.14379 0.0262,0.0654 0.0915,0.0915 0.11764,0.0523 0.10457,0.27452 -0.0131,0.183 -0.36601,0.70588 -0.86275,1.3072 -1.11112,1.77779 -0.16994,0.3268 -0.37909,0.62745 -0.0261,0.0392 0.30066,0.60131 0.44444,0.75818 1.04575,1.5425 0.45752,0.60131 0.6536,0.95425 0.15687,0.27451 0.18301,0.36601 0.0261,0.11765 0.0654,0.20915 0.0392,0.11765 -0.0131,0.2353 -0.0523,0.10458 -0.0915,0.10458 -0.0261,0 -0.23529,0.10457 -0.19608,0.0915 -0.27451,0.0784 -0.2353,-0.0392 -0.31373,-0.20915 -0.23529,-0.52288 -0.62745,-1.0719 -0.81047,-1.08497 -1.09805,-1.56863 l -0.19608,-0.31373 q -0.0131,0 -0.22222,0.35294 -0.19608,0.35294 -0.47059,0.82353 -0.26144,0.45752 -0.37909,0.64053 -0.0784,0.11765 -0.19608,0.35294 -0.0915,0.18301 -0.26144,0.44445 -0.15686,0.24837 -0.183,0.24837 z"
         style="stroke-width:0.332"
         id="path898" />
    </g>
  </g>
</svg>
